<?xml version="1.0" encoding="utf-8"?>
<svg version="1.1" id="Layer_1"
xmlns="http://www.w3.org/2000/svg"
xmlns:xlink="http://www.w3.org/1999/xlink"
width="165px" height="26px"
xml:space="preserve">
<g id="PathID_1" transform="matrix(0.258013, 0, 0, 0.374436, -0.15, 19.7)" opacity="1">
<path style="fill:#FFFFFF;fill-opacity:1" d="M11.45 -32.8L11.45 -19.95L26 -35.15Q27.05 -36.25 27.8 -36.75Q28.55 -37.3 29.75 -37.3Q31.35 -37.3 32.35 -36.35Q33.35 -35.4 33.35 -34.05Q33.35 -32.4 31.65 -30.8L22.65 -22.25L33.05 -7.35Q34.15 -5.8 34.7 -4.6Q35.25 -3.45 35.25 -2.35Q35.25 -1.15 34.25 -0.25Q33.3 0.65 31.65 0.65Q30.1 0.65 29.1 0Q28.15 -0.65 27.45 -1.75L26.3 -3.75L17.5 -17.3L11.45 -11.45L11.45 -3.85Q11.45 -1.55 10.4 -0.45Q9.35 0.65 7.7 0.65Q6.75 0.65 5.85 0.15Q5 -0.35 4.5 -1.2Q4.15 -1.9 4.1 -2.8L4.05 -5.5L4.05 -32.75Q4.05 -35 5 -36.15Q6 -37.3 7.7 -37.3Q9.35 -37.3 10.4 -36.15Q11.45 -35.05 11.45 -32.8" />
</g>
<g id="PathID_2" transform="matrix(0.258013, 0, 0, 0.374436, -0.15, 19.7)" opacity="1">
</g>
<g id="PathID_3" transform="matrix(0.258013, 0, 0, 0.374436, 9.35, 19.7)" opacity="1">
<path style="fill:#FFFFFF;fill-opacity:1" d="M20.8 -3.2Q18.3 -1.25 15.95 -0.3Q13.65 0.65 10.8 0.65Q8.15 0.65 6.15 -0.35Q4.2 -1.4 3.1 -3.15Q2.05 -4.95 2.05 -7.05Q2.05 -9.85 3.8 -11.8Q5.6 -13.8 8.7 -14.5L11.9 -15.15L16.3 -16.1Q18.15 -16.55 20.35 -17.2Q20.2 -19.9 19.2 -21.15Q18.25 -22.45 15.25 -22.45Q12.65 -22.45 11.3 -21.7Q10 -20.95 9.05 -19.5Q8.15 -18.05 7.75 -17.6Q7.35 -17.15 6.1 -17.15Q4.95 -17.15 4.1 -17.85Q3.25 -18.6 3.25 -19.75Q3.25 -21.55 4.5 -23.25Q5.8 -24.95 8.5 -26.05Q11.2 -27.2 15.25 -27.2Q19.75 -27.2 22.3 -26.1Q24.9 -25.05 25.95 -22.75Q27.05 -20.45 27.05 -16.65L27 -12.55L27 -8.85Q27 -6.9 27.6 -4.8Q28.25 -2.7 28.25 -2.1Q28.25 -1.05 27.25 -0.2Q26.3 0.65 25.05 0.65Q24 0.65 22.95 -0.3Q21.95 -1.3 20.8 -3.2M20.35 -13.1Q18.8 -12.55 15.95 -11.9L12 -11Q10.9 -10.75 9.9 -9.9Q8.9 -9.05 8.9 -7.55Q8.9 -6 10.05 -4.9Q11.25 -3.85 13.15 -3.85Q15.15 -3.85 16.85 -4.7Q18.6 -5.6 19.4 -7Q20.35 -8.55 20.35 -12.1L20.35 -13.1" />
</g>
<g id="PathID_4" transform="matrix(0.258013, 0, 0, 0.374436, 9.35, 19.7)" opacity="1">
</g>
<g id="PathID_5" transform="matrix(0.258013, 0, 0, 0.374436, 17.2, 19.7)" opacity="1">
<path style="fill:#FFFFFF;fill-opacity:1" d="M9.7 -23.35L9.7 -22.5Q11.5 -24.9 13.65 -26Q15.8 -27.15 18.55 -27.15Q21.25 -27.15 23.35 -25.95Q25.5 -24.75 26.55 -22.6Q27.25 -21.35 27.45 -19.9Q27.65 -18.45 27.65 -16.2L27.65 -3.5Q27.65 -1.45 26.7 -0.4Q25.75 0.65 24.25 0.65Q22.75 0.65 21.8 -0.4Q20.85 -1.5 20.85 -3.5L20.85 -14.85Q20.85 -18.25 19.9 -20.05Q18.95 -21.85 16.15 -21.85Q14.35 -21.85 12.85 -20.75Q11.35 -19.65 10.65 -17.75Q10.15 -16.2 10.15 -12.05L10.15 -3.5Q10.15 -1.4 9.15 -0.35Q8.2 0.65 6.7 0.65Q5.2 0.65 4.25 -0.4Q3.35 -1.5 3.35 -3.5L3.35 -23.25Q3.35 -25.2 4.15 -26.15Q5 -27.15 6.5 -27.15Q7.4 -27.15 8.1 -26.7Q8.85 -26.25 9.25 -25.4Q9.7 -24.55 9.7 -23.35" />
</g>
<g id="PathID_6" transform="matrix(0.258013, 0, 0, 0.374436, 17.2, 19.7)" opacity="1">
</g>
<g id="PathID_7" transform="matrix(0.258013, 0, 0, 0.374436, 25.15, 19.7)" opacity="1">
<path style="fill:#FFFFFF;fill-opacity:1" d="M3.9 -26.55L4.65 -26.55L4.65 -30.6L4.7 -33.2Q4.8 -34.15 5.2 -34.8Q5.6 -35.5 6.35 -35.95Q7.1 -36.4 8 -36.4Q9.3 -36.4 10.35 -35.4Q11.05 -34.75 11.25 -33.8Q11.45 -32.9 11.45 -31.15L11.45 -26.55L13.95 -26.55Q15.4 -26.55 16.15 -25.85Q16.9 -25.15 16.9 -24.05Q16.9 -22.7 15.8 -22.15Q14.75 -21.6 12.7 -21.6L11.45 -21.6L11.45 -9.05Q11.45 -7.45 11.55 -6.55Q11.65 -5.7 12.15 -5.15Q12.65 -4.65 13.75 -4.65Q14.35 -4.65 15.35 -4.85Q16.4 -5.05 16.95 -5.05Q17.8 -5.05 18.45 -4.35Q19.1 -3.7 19.1 -2.75Q19.1 -1.1 17.3 -0.2Q15.5 0.65 12.15 0.65Q8.95 0.65 7.3 -0.4Q5.65 -1.5 5.15 -3.4Q4.65 -5.3 4.65 -8.45L4.65 -21.6L3.75 -21.6Q2.25 -21.6 1.45 -22.3Q0.7 -23 0.7 -24.05Q0.7 -25.15 1.5 -25.85Q2.35 -26.55 3.9 -26.55" />
</g>
<g id="PathID_8" transform="matrix(0.258013, 0, 0, 0.374436, 25.15, 19.7)" opacity="1">
</g>
<g id="PathID_9" transform="matrix(0.258013, 0, 0, 0.374436, 29.8, 19.7)" opacity="1">
<path style="fill:#FFFFFF;fill-opacity:1" d="M10.35 -23.25L10.35 -3.5Q10.35 -1.45 9.35 -0.4Q8.4 0.65 6.9 0.65Q5.4 0.65 4.45 -0.4Q3.55 -1.5 3.55 -3.5L3.55 -23.05Q3.55 -25.05 4.45 -26.1Q5.4 -27.15 6.9 -27.15Q8.4 -27.15 9.35 -26.1Q10.35 -25.05 10.35 -23.25M6.95 -30.35Q5.55 -30.35 4.55 -31.2Q3.55 -32.05 3.55 -33.65Q3.55 -35.1 4.55 -36.05Q5.6 -37 6.95 -37Q8.3 -37 9.3 -36.15Q10.35 -35.3 10.35 -33.65Q10.35 -32.1 9.35 -31.2Q8.35 -30.35 6.95 -30.35" />
</g>
<g id="PathID_10" transform="matrix(0.258013, 0, 0, 0.374436, 29.8, 19.7)" opacity="1">
</g>
<g id="PathID_11" transform="matrix(0.258013, 0, 0, 0.374436, 33.4, 19.7)" opacity="1">
<path style="fill:#FFFFFF;fill-opacity:1" d="M9.7 -23.35L9.7 -22.5Q11.5 -24.9 13.65 -26Q15.8 -27.15 18.55 -27.15Q21.25 -27.15 23.35 -25.95Q25.5 -24.75 26.55 -22.6Q27.25 -21.35 27.45 -19.9Q27.65 -18.45 27.65 -16.2L27.65 -3.5Q27.65 -1.45 26.7 -0.4Q25.75 0.65 24.25 0.65Q22.75 0.65 21.8 -0.4Q20.85 -1.5 20.85 -3.5L20.85 -14.85Q20.85 -18.25 19.9 -20.05Q18.95 -21.85 16.15 -21.85Q14.35 -21.85 12.85 -20.75Q11.35 -19.65 10.65 -17.75Q10.15 -16.2 10.15 -12.05L10.15 -3.5Q10.15 -1.4 9.15 -0.35Q8.2 0.65 6.7 0.65Q5.2 0.65 4.25 -0.4Q3.35 -1.5 3.35 -3.5L3.35 -23.25Q3.35 -25.2 4.15 -26.15Q5 -27.15 6.5 -27.15Q7.4 -27.15 8.1 -26.7Q8.85 -26.25 9.25 -25.4Q9.7 -24.55 9.7 -23.35" />
</g>
<g id="PathID_12" transform="matrix(0.258013, 0, 0, 0.374436, 33.4, 19.7)" opacity="1">
</g>
<g id="PathID_13" transform="matrix(0.258013, 0, 0, 0.374436, 44.65, 19.7)" opacity="1">
<path style="fill:#FFFFFF;fill-opacity:1" d="M31.85 -10.95Q31.85 -7.65 30.1 -5Q28.4 -2.35 25.1 -0.85Q21.8 0.65 17.3 0.65Q11.85 0.65 8.35 -1.4Q5.85 -2.85 4.3 -5.3Q2.75 -7.8 2.75 -10.1Q2.75 -11.45 3.65 -12.4Q4.6 -13.4 6.05 -13.4Q7.2 -13.4 8 -12.65Q8.85 -11.9 9.4 -10.4Q10.1 -8.65 10.9 -7.45Q11.75 -6.3 13.2 -5.55Q14.7 -4.8 17.1 -4.8Q20.4 -4.8 22.45 -6.3Q24.55 -7.85 24.55 -10.15Q24.55 -12 23.4 -13.1Q22.3 -14.25 20.5 -14.85Q18.75 -15.45 15.8 -16.15Q11.85 -17.05 9.2 -18.3Q6.55 -19.55 5 -21.7Q3.45 -23.85 3.45 -27Q3.45 -30.05 5.05 -32.4Q6.7 -34.75 9.8 -36Q12.95 -37.3 17.2 -37.3Q20.55 -37.3 23 -36.45Q25.5 -35.6 27.1 -34.2Q28.75 -32.8 29.5 -31.25Q30.25 -29.75 30.25 -28.3Q30.25 -26.95 29.3 -25.9Q28.35 -24.85 26.95 -24.85Q25.7 -24.85 25 -25.45Q24.35 -26.1 23.6 -27.6Q22.6 -29.65 21.2 -30.8Q19.8 -32 16.7 -32Q13.8 -32 12.05 -30.7Q10.3 -29.45 10.3 -27.65Q10.3 -26.55 10.9 -25.75Q11.5 -24.95 12.55 -24.35Q13.6 -23.8 14.65 -23.45L18.2 -22.55Q21.3 -21.8 23.8 -20.9Q26.35 -20.05 28.1 -18.8Q29.85 -17.55 30.85 -15.65Q31.85 -13.75 31.85 -10.95" />
</g>
<g id="PathID_14" transform="matrix(0.258013, 0, 0, 0.374436, 44.65, 19.7)" opacity="1">
</g>
<g id="PathID_15" transform="matrix(0.258013, 0, 0, 0.374436, 53.45, 19.7)" opacity="1">
<path style="fill:#FFFFFF;fill-opacity:1" d="M22.6 -11.55L9.25 -11.55Q9.25 -9.2 10.15 -7.4Q11.1 -5.65 12.6 -4.75Q14.1 -3.9 15.95 -3.9Q17.15 -3.9 18.15 -4.15Q19.2 -4.45 20.15 -5.05Q21.1 -5.65 21.9 -6.35L23.95 -8.25Q24.5 -8.7 25.45 -8.7Q26.5 -8.7 27.15 -8.1Q27.8 -7.55 27.8 -6.5Q27.8 -5.6 27.05 -4.35Q26.35 -3.1 24.9 -1.95Q23.45 -0.85 21.2 -0.1Q19 0.65 16.15 0.65Q9.55 0.65 5.9 -3.1Q2.25 -6.85 2.25 -13.3Q2.25 -16.3 3.15 -18.9Q4.05 -21.5 5.75 -23.35Q7.5 -25.2 10 -26.2Q12.55 -27.2 15.65 -27.2Q19.65 -27.2 22.5 -25.5Q25.35 -23.8 26.75 -21.1Q28.2 -18.4 28.2 -15.65Q28.2 -13.05 26.7 -12.3Q25.25 -11.55 22.6 -11.55M9.25 -15.45L21.6 -15.45Q21.35 -18.95 19.7 -20.7Q18.1 -22.45 15.4 -22.45Q12.85 -22.45 11.2 -20.65Q9.6 -18.9 9.25 -15.45" />
</g>
<g id="PathID_16" transform="matrix(0.258013, 0, 0, 0.374436, 53.45, 19.7)" opacity="1">
</g>
<g id="PathID_17" transform="matrix(0.258013, 0, 0, 0.374436, 61.3, 19.7)" opacity="1">
<path style="fill:#FFFFFF;fill-opacity:1" d="M20.5 -2.45L14.5 -12.4L10.8 -8.85L10.8 -3.45Q10.8 -1.45 9.75 -0.4Q8.7 0.65 7.35 0.65Q5.8 0.65 4.9 -0.4Q4 -1.45 4 -3.5L4 -32.6Q4 -34.9 4.85 -36.1Q5.75 -37.3 7.35 -37.3Q8.95 -37.3 9.85 -36.2Q10.8 -35.15 10.8 -33.05L10.8 -16.5L18.45 -24.55Q19.9 -26.05 20.65 -26.6Q21.4 -27.15 22.45 -27.15Q23.75 -27.15 24.6 -26.3Q25.45 -25.5 25.45 -24.25Q25.45 -22.75 22.65 -20.25L19.05 -16.95L26.05 -5.9L27.15 -4.05Q27.5 -3.4 27.5 -2.85Q27.5 -1.2 26.6 -0.25Q25.7 0.65 24.25 0.65Q23 0.65 22.3 0Q21.65 -0.7 20.5 -2.45" />
</g>
<g id="PathID_18" transform="matrix(0.258013, 0, 0, 0.374436, 61.3, 19.7)" opacity="1">
</g>
<g id="PathID_19" transform="matrix(0.258013, 0, 0, 0.374436, 68.35, 19.7)" opacity="1">
<path style="fill:#FFFFFF;fill-opacity:1" d="M29.1 -13.25Q29.1 -10.2 28.1 -7.6Q27.15 -5 25.35 -3.15Q23.55 -1.3 21.05 -0.3Q18.55 0.65 15.45 0.65Q12.35 0.65 9.85 -0.35Q7.4 -1.35 5.55 -3.2Q3.75 -5.05 2.8 -7.6Q1.9 -10.15 1.9 -13.25Q1.9 -16.35 2.85 -18.9Q3.8 -21.5 5.55 -23.3Q7.35 -25.15 9.85 -26.15Q12.4 -27.15 15.45 -27.15Q18.55 -27.15 21.05 -26.1Q23.6 -25.1 25.4 -23.25Q27.2 -21.4 28.15 -18.85Q29.1 -16.3 29.1 -13.25M22.25 -13.25Q22.25 -17.4 20.4 -19.75Q18.55 -22.1 15.45 -22.1Q13.45 -22.1 11.9 -21.05Q10.4 -20 9.55 -17.95Q8.75 -15.95 8.75 -13.25Q8.75 -10.55 9.55 -8.55Q10.35 -6.55 11.85 -5.5Q13.4 -4.45 15.45 -4.45Q18.55 -4.45 20.4 -6.75Q22.25 -9.1 22.25 -13.25" />
</g>
<g id="PathID_20" transform="matrix(0.258013, 0, 0, 0.374436, 68.35, 19.7)" opacity="1">
</g>
<g id="PathID_21" transform="matrix(0.258013, 0, 0, 0.374436, 76.3, 19.7)" opacity="1">
<path style="fill:#FFFFFF;fill-opacity:1" d="M3.55 -3.5L3.55 -33.1Q3.55 -35.15 4.45 -36.2Q5.35 -37.3 6.9 -37.3Q8.45 -37.3 9.4 -36.25Q10.35 -35.2 10.35 -33.1L10.35 -3.5Q10.35 -1.4 9.35 -0.35Q8.4 0.65 6.9 0.65Q5.4 0.65 4.45 -0.4Q3.55 -1.5 3.55 -3.5" />
</g>
<g id="PathID_22" transform="matrix(0.258013, 0, 0, 0.374436, 76.3, 19.7)" opacity="1">
</g>
<g id="PathID_23" transform="matrix(0.258013, 0, 0, 0.374436, 79.9, 19.7)" opacity="1">
<path style="fill:#FFFFFF;fill-opacity:1" d="M20.8 -3.2Q18.3 -1.25 15.95 -0.3Q13.65 0.65 10.8 0.65Q8.15 0.65 6.15 -0.35Q4.2 -1.4 3.1 -3.15Q2.05 -4.95 2.05 -7.05Q2.05 -9.85 3.8 -11.8Q5.6 -13.8 8.7 -14.5L11.9 -15.15L16.3 -16.1Q18.15 -16.55 20.35 -17.2Q20.2 -19.9 19.2 -21.15Q18.25 -22.45 15.25 -22.45Q12.65 -22.45 11.3 -21.7Q10 -20.95 9.05 -19.5Q8.15 -18.05 7.75 -17.6Q7.35 -17.15 6.1 -17.15Q4.95 -17.15 4.1 -17.85Q3.25 -18.6 3.25 -19.75Q3.25 -21.55 4.5 -23.25Q5.8 -24.95 8.5 -26.05Q11.2 -27.2 15.25 -27.2Q19.75 -27.2 22.3 -26.1Q24.9 -25.05 25.95 -22.75Q27.05 -20.45 27.05 -16.65L27 -12.55L27 -8.85Q27 -6.9 27.6 -4.8Q28.25 -2.7 28.25 -2.1Q28.25 -1.05 27.25 -0.2Q26.3 0.65 25.05 0.65Q24 0.65 22.95 -0.3Q21.95 -1.3 20.8 -3.2M20.35 -13.1Q18.8 -12.55 15.95 -11.9L12 -11Q10.9 -10.75 9.9 -9.9Q8.9 -9.05 8.9 -7.55Q8.9 -6 10.05 -4.9Q11.25 -3.85 13.15 -3.85Q15.15 -3.85 16.85 -4.7Q18.6 -5.6 19.4 -7Q20.35 -8.55 20.35 -12.1L20.35 -13.1" />
</g>
<g id="PathID_24" transform="matrix(0.258013, 0, 0, 0.374436, 79.9, 19.7)" opacity="1">
</g>
<g id="PathID_25" transform="matrix(0.258013, 0, 0, 0.374436, 87.7, 19.7)" opacity="1">
<path style="fill:#FFFFFF;fill-opacity:1" d="M10.2 -33.1L10.2 -23Q11.5 -24.5 12.7 -25.35Q13.95 -26.25 15.45 -26.7Q16.95 -27.15 18.7 -27.15Q21.3 -27.15 23.3 -26Q25.3 -24.9 26.45 -22.8Q27.2 -21.6 27.45 -20.05Q27.7 -18.55 27.7 -16.55L27.7 -3.5Q27.7 -1.45 26.75 -0.4Q25.8 0.65 24.25 0.65Q20.9 0.65 20.9 -3.5L20.9 -15Q20.9 -18.3 19.9 -20.05Q18.95 -21.85 16.2 -21.85Q14.4 -21.85 12.9 -20.8Q11.45 -19.75 10.75 -17.95Q10.2 -16.4 10.2 -12.5L10.2 -3.5Q10.2 -1.45 9.25 -0.4Q8.35 0.65 6.75 0.65Q3.4 0.65 3.4 -3.5L3.4 -33.1Q3.4 -35.2 4.25 -36.25Q5.15 -37.3 6.75 -37.3Q8.35 -37.3 9.25 -36.2Q10.2 -35.15 10.2 -33.1" />
</g>
<g id="PathID_26" transform="matrix(0.258013, 0, 0, 0.374436, 87.7, 19.7)" opacity="1">
</g>
<g id="PathID_27" transform="matrix(0.258013, 0, 0, 0.374436, 99, 19.7)" opacity="1">
<path style="fill:#FFFFFF;fill-opacity:1" d="M28.1 -30.95L11.4 -30.95L11.4 -21.95L26.8 -21.95Q28.5 -21.95 29.3 -21.15Q30.15 -20.4 30.15 -19.15Q30.15 -17.9 29.3 -17.1Q28.5 -16.35 26.8 -16.35L11.4 -16.35L11.4 -5.9L28.7 -5.9Q30.45 -5.9 31.3 -5.05Q32.2 -4.25 32.2 -2.9Q32.2 -1.6 31.3 -0.8Q30.45 0 28.7 0L8.5 0Q6.1 0 5.05 -1.05Q4 -2.15 4 -4.55L4 -32.1Q4 -33.7 4.45 -34.7Q4.9 -35.7 5.9 -36.15Q6.95 -36.65 8.5 -36.65L28.1 -36.65Q29.9 -36.65 30.75 -35.85Q31.6 -35.05 31.6 -33.8Q31.6 -32.5 30.75 -31.7Q29.9 -30.95 28.1 -30.95" />
</g>
<g id="PathID_28" transform="matrix(0.258013, 0, 0, 0.374436, 99, 19.7)" opacity="1">
</g>
<g id="PathID_29" transform="matrix(0.258013, 0, 0, 0.374436, 107.8, 19.7)" opacity="1">
<path style="fill:#FFFFFF;fill-opacity:1" d="M3.55 -3.5L3.55 -33.1Q3.55 -35.15 4.45 -36.2Q5.35 -37.3 6.9 -37.3Q8.45 -37.3 9.4 -36.25Q10.35 -35.2 10.35 -33.1L10.35 -3.5Q10.35 -1.4 9.35 -0.35Q8.4 0.65 6.9 0.65Q5.4 0.65 4.45 -0.4Q3.55 -1.5 3.55 -3.5" />
</g>
<g id="PathID_30" transform="matrix(0.258013, 0, 0, 0.374436, 107.8, 19.7)" opacity="1">
</g>
<g id="PathID_31" transform="matrix(0.258013, 0, 0, 0.374436, 111.35, 19.7)" opacity="1">
<path style="fill:#FFFFFF;fill-opacity:1" d="M22.6 -11.55L9.25 -11.55Q9.25 -9.2 10.15 -7.4Q11.1 -5.65 12.6 -4.75Q14.1 -3.9 15.95 -3.9Q17.15 -3.9 18.15 -4.15Q19.2 -4.45 20.15 -5.05Q21.1 -5.65 21.9 -6.35L23.95 -8.25Q24.5 -8.7 25.45 -8.7Q26.5 -8.7 27.15 -8.1Q27.8 -7.55 27.8 -6.5Q27.8 -5.6 27.05 -4.35Q26.35 -3.1 24.9 -1.95Q23.45 -0.85 21.2 -0.1Q19 0.65 16.15 0.65Q9.55 0.65 5.9 -3.1Q2.25 -6.85 2.25 -13.3Q2.25 -16.3 3.15 -18.9Q4.05 -21.5 5.75 -23.35Q7.5 -25.2 10 -26.2Q12.55 -27.2 15.65 -27.2Q19.65 -27.2 22.5 -25.5Q25.35 -23.8 26.75 -21.1Q28.2 -18.4 28.2 -15.65Q28.2 -13.05 26.7 -12.3Q25.25 -11.55 22.6 -11.55M9.25 -15.45L21.6 -15.45Q21.35 -18.95 19.7 -20.7Q18.1 -22.45 15.4 -22.45Q12.85 -22.45 11.2 -20.65Q9.6 -18.9 9.25 -15.45" />
</g>
<g id="PathID_32" transform="matrix(0.258013, 0, 0, 0.374436, 111.35, 19.7)" opacity="1">
</g>
<g id="PathID_33" transform="matrix(0.258013, 0, 0, 0.374436, 119.2, 19.7)" opacity="1">
<path style="fill:#FFFFFF;fill-opacity:1" d="M20.5 -2.45L14.5 -12.4L10.8 -8.85L10.8 -3.45Q10.8 -1.45 9.75 -0.4Q8.7 0.65 7.35 0.65Q5.8 0.65 4.9 -0.4Q4 -1.45 4 -3.5L4 -32.6Q4 -34.9 4.85 -36.1Q5.75 -37.3 7.35 -37.3Q8.95 -37.3 9.85 -36.2Q10.8 -35.15 10.8 -33.05L10.8 -16.5L18.45 -24.55Q19.9 -26.05 20.65 -26.6Q21.4 -27.15 22.45 -27.15Q23.75 -27.15 24.6 -26.3Q25.45 -25.5 25.45 -24.25Q25.45 -22.75 22.65 -20.25L19.05 -16.95L26.05 -5.9L27.15 -4.05Q27.5 -3.4 27.5 -2.85Q27.5 -1.2 26.6 -0.25Q25.7 0.65 24.25 0.65Q23 0.65 22.3 0Q21.65 -0.7 20.5 -2.45" />
</g>
<g id="PathID_34" transform="matrix(0.258013, 0, 0, 0.374436, 119.2, 19.7)" opacity="1">
</g>
<g id="PathID_35" transform="matrix(0.258013, 0, 0, 0.374436, 126.75, 19.7)" opacity="1">
<path style="fill:#FFFFFF;fill-opacity:1" d="M3.9 -26.55L4.65 -26.55L4.65 -30.6L4.7 -33.2Q4.8 -34.15 5.2 -34.8Q5.6 -35.5 6.35 -35.95Q7.1 -36.4 8 -36.4Q9.3 -36.4 10.35 -35.4Q11.05 -34.75 11.25 -33.8Q11.45 -32.9 11.45 -31.15L11.45 -26.55L13.95 -26.55Q15.4 -26.55 16.15 -25.85Q16.9 -25.15 16.9 -24.05Q16.9 -22.7 15.8 -22.15Q14.75 -21.6 12.7 -21.6L11.45 -21.6L11.45 -9.05Q11.45 -7.45 11.55 -6.55Q11.65 -5.7 12.15 -5.15Q12.65 -4.65 13.75 -4.65Q14.35 -4.65 15.35 -4.85Q16.4 -5.05 16.95 -5.05Q17.8 -5.05 18.45 -4.35Q19.1 -3.7 19.1 -2.75Q19.1 -1.1 17.3 -0.2Q15.5 0.65 12.15 0.65Q8.95 0.65 7.3 -0.4Q5.65 -1.5 5.15 -3.4Q4.65 -5.3 4.65 -8.45L4.65 -21.6L3.75 -21.6Q2.25 -21.6 1.45 -22.3Q0.7 -23 0.7 -24.05Q0.7 -25.15 1.5 -25.85Q2.35 -26.55 3.9 -26.55" />
</g>
<g id="PathID_36" transform="matrix(0.258013, 0, 0, 0.374436, 126.75, 19.7)" opacity="1">
</g>
<g id="PathID_37" transform="matrix(0.258013, 0, 0, 0.374436, 131.4, 19.7)" opacity="1">
<path style="fill:#FFFFFF;fill-opacity:1" d="M10.3 -9.2L10.3 -3.5Q10.3 -1.4 9.3 -0.35Q8.35 0.65 6.85 0.65Q5.35 0.65 4.4 -0.4Q3.5 -1.45 3.5 -3.5L3.5 -22.5Q3.5 -27.15 6.8 -27.15Q8.5 -27.15 9.25 -26.05Q10 -24.95 10.05 -22.85Q11.3 -24.95 12.55 -26.05Q13.85 -27.15 16 -27.15Q18.15 -27.15 20.15 -26.05Q22.2 -24.95 22.2 -23.2Q22.2 -21.95 21.35 -21.1Q20.5 -20.3 19.5 -20.3Q19.1 -20.3 17.65 -20.75Q16.25 -21.25 15.15 -21.25Q13.65 -21.25 12.7 -20.45Q11.75 -19.65 11.2 -18.1Q10.7 -16.55 10.5 -14.4Q10.3 -12.25 10.3 -9.2" />
</g>
<g id="PathID_38" transform="matrix(0.258013, 0, 0, 0.374436, 131.4, 19.7)" opacity="1">
</g>
<g id="PathID_39" transform="matrix(0.258013, 0, 0, 0.374436, 136.7, 19.7)" opacity="1">
<path style="fill:#FFFFFF;fill-opacity:1" d="M29.1 -13.25Q29.1 -10.2 28.1 -7.6Q27.15 -5 25.35 -3.15Q23.55 -1.3 21.05 -0.3Q18.55 0.65 15.45 0.65Q12.35 0.65 9.85 -0.35Q7.4 -1.35 5.55 -3.2Q3.75 -5.05 2.8 -7.6Q1.9 -10.15 1.9 -13.25Q1.9 -16.35 2.85 -18.9Q3.8 -21.5 5.55 -23.3Q7.35 -25.15 9.85 -26.15Q12.4 -27.15 15.45 -27.15Q18.55 -27.15 21.05 -26.1Q23.6 -25.1 25.4 -23.25Q27.2 -21.4 28.15 -18.85Q29.1 -16.3 29.1 -13.25M22.25 -13.25Q22.25 -17.4 20.4 -19.75Q18.55 -22.1 15.45 -22.1Q13.45 -22.1 11.9 -21.05Q10.4 -20 9.55 -17.95Q8.75 -15.95 8.75 -13.25Q8.75 -10.55 9.55 -8.55Q10.35 -6.55 11.85 -5.5Q13.4 -4.45 15.45 -4.45Q18.55 -4.45 20.4 -6.75Q22.25 -9.1 22.25 -13.25" />
</g>
<g id="PathID_40" transform="matrix(0.258013, 0, 0, 0.374436, 136.7, 19.7)" opacity="1">
</g>
<g id="PathID_41" transform="matrix(0.258013, 0, 0, 0.374436, 144.65, 19.7)" opacity="1">
<path style="fill:#FFFFFF;fill-opacity:1" d="M9.7 -23.35L9.7 -22.5Q11.5 -24.9 13.65 -26Q15.8 -27.15 18.55 -27.15Q21.25 -27.15 23.35 -25.95Q25.5 -24.75 26.55 -22.6Q27.25 -21.35 27.45 -19.9Q27.65 -18.45 27.65 -16.2L27.65 -3.5Q27.65 -1.45 26.7 -0.4Q25.75 0.65 24.25 0.65Q22.75 0.65 21.8 -0.4Q20.85 -1.5 20.85 -3.5L20.85 -14.85Q20.85 -18.25 19.9 -20.05Q18.95 -21.85 16.15 -21.85Q14.35 -21.85 12.85 -20.75Q11.35 -19.65 10.65 -17.75Q10.15 -16.2 10.15 -12.05L10.15 -3.5Q10.15 -1.4 9.15 -0.35Q8.2 0.65 6.7 0.65Q5.2 0.65 4.25 -0.4Q3.35 -1.5 3.35 -3.5L3.35 -23.25Q3.35 -25.2 4.15 -26.15Q5 -27.15 6.5 -27.15Q7.4 -27.15 8.1 -26.7Q8.85 -26.25 9.25 -25.4Q9.7 -24.55 9.7 -23.35" />
</g>
<g id="PathID_42" transform="matrix(0.258013, 0, 0, 0.374436, 144.65, 19.7)" opacity="1">
</g>
<g id="PathID_43" transform="matrix(0.258013, 0, 0, 0.374436, 152.65, 19.7)" opacity="1">
<path style="fill:#FFFFFF;fill-opacity:1" d="M10.35 -23.25L10.35 -3.5Q10.35 -1.45 9.35 -0.4Q8.4 0.65 6.9 0.65Q5.4 0.65 4.45 -0.4Q3.55 -1.5 3.55 -3.5L3.55 -23.05Q3.55 -25.05 4.45 -26.1Q5.4 -27.15 6.9 -27.15Q8.4 -27.15 9.35 -26.1Q10.35 -25.05 10.35 -23.25M6.95 -30.35Q5.55 -30.35 4.55 -31.2Q3.55 -32.05 3.55 -33.65Q3.55 -35.1 4.55 -36.05Q5.6 -37 6.95 -37Q8.3 -37 9.3 -36.15Q10.35 -35.3 10.35 -33.65Q10.35 -32.1 9.35 -31.2Q8.35 -30.35 6.95 -30.35" />
</g>
<g id="PathID_44" transform="matrix(0.258013, 0, 0, 0.374436, 152.65, 19.7)" opacity="1">
</g>
<g id="PathID_45" transform="matrix(0.258013, 0, 0, 0.374436, 156.2, 19.7)" opacity="1">
<path style="fill:#FFFFFF;fill-opacity:1" d="M20.5 -2.45L14.5 -12.4L10.8 -8.85L10.8 -3.45Q10.8 -1.45 9.75 -0.4Q8.7 0.65 7.35 0.65Q5.8 0.65 4.9 -0.4Q4 -1.45 4 -3.5L4 -32.6Q4 -34.9 4.85 -36.1Q5.75 -37.3 7.35 -37.3Q8.95 -37.3 9.85 -36.2Q10.8 -35.15 10.8 -33.05L10.8 -16.5L18.45 -24.55Q19.9 -26.05 20.65 -26.6Q21.4 -27.15 22.45 -27.15Q23.75 -27.15 24.6 -26.3Q25.45 -25.5 25.45 -24.25Q25.45 -22.75 22.65 -20.25L19.05 -16.95L26.05 -5.9L27.15 -4.05Q27.5 -3.4 27.5 -2.85Q27.5 -1.2 26.6 -0.25Q25.7 0.65 24.25 0.65Q23 0.65 22.3 0Q21.65 -0.7 20.5 -2.45" />
</g>
<g id="PathID_46" transform="matrix(0.258013, 0, 0, 0.374436, 156.2, 19.7)" opacity="1">
</g>
</svg>
